<svg version="1.1" xmlns="http://www.w3.org/2000/svg" xmlns:xlink="http://www.w3.org/1999/xlink" width="200" height="200" viewBox="0,0,200,200"><defs><linearGradient x1="140" y1="280" x2="340" y2="80" gradientUnits="userSpaceOnUse" id="color-1"><stop offset="0" stop-color="#ffbf00"/><stop offset="1" stop-color="#ff8c00"/></linearGradient><linearGradient x1="236.05358" y1="181.71233" x2="267.01806" y2="181.71233" gradientUnits="userSpaceOnUse" id="color-2"><stop offset="0" stop-color="#ffbf00"/><stop offset="1" stop-color="#ff8c00"/></linearGradient></defs><g transform="translate(-140,-80)"><g stroke="none" stroke-miterlimit="10"><g fill="none" stroke-width="1" font-family="sans-serif" font-weight="normal" font-size="12" text-anchor="start"/><g><path d="M160,280c-11.04569,0 -20,-8.9543 -20,-20v-160c0,-11.04569 8.95431,-20 20,-20h160c11.0457,0 20,8.95431 20,20v160c0,11.0457 -8.9543,20 -20,20z" fill="url(#color-1)" stroke-width="1"/><g stroke-width="0"><path d="M266.7261,205.28221c-7.8718,8.32136 -16.52262,14.93573 -25.12148,19.59485c-1.85091,1.00288 -7.28134,-1.40786 -7.28134,-1.40786c0,0 -1.96176,5.70387 -3.78972,6.33937c-13.81242,4.80201 -26.51118,4.02427 -34.39926,-3.43766c-9.12553,-8.63252 -9.67619,-24.18988 -3.04182,-40.86187c0.4403,-1.10646 5.86427,-3.33241 5.86427,-3.33241c0,0 -2.69627,-3.70102 -1.69326,-5.55703c4.02569,-7.44934 9.40229,-14.91627 16.01043,-21.90181c24.22636,-25.60995 55.83139,-35.05169 70.59181,-21.08871c5.0214,4.75012 7.44646,11.59697 7.50675,19.57252c0.01177,1.55675 -5.63543,6.69869 -5.63543,6.69869c0,0 4.78093,2.63383 4.22678,4.9861c-3.06691,13.01865 -11.06171,27.52443 -23.23772,40.39582z" fill="#ffffff"/><path d="M207.13609,211.99403l21.88672,-17.27546l3.53525,-24.22145l21.0104,-17.68234l13.89895,-8.22809l-6.9834,18.95616l-14.12131,16.80528l-8.89769,21.79489z" fill="url(#color-2)"/></g></g></g></g></svg>